<?xml version="1.0" standalone="no"?>
<!DOCTYPE svg PUBLIC "-//W3C//DTD SVG 20010904//EN"
 "http://www.w3.org/TR/2001/REC-SVG-20010904/DTD/svg10.dtd">
<svg version="1.0" xmlns="http://www.w3.org/2000/svg"
 width="700.000000pt" height="700.000000pt" viewBox="0 0 700.000000 700.000000"
 preserveAspectRatio="xMidYMid meet">
<metadata>
Created by potrace 1.11, written by Peter Selinger 2001-2013
</metadata>
<g transform="translate(0.000000,700.000000) scale(0.100000,-0.100000)"
fill="#000000" stroke="none">
<path d="M307 6143 c85 -139 119 -196 158 -261 6 -10 47 -78 93 -152 46 -74
159 -259 251 -410 l168 -275 1785 -5 1785 -5 -115 -190 c-63 -104 -120 -199
-126 -210 -17 -30 -106 -178 -117 -195 -64 -102 -349 -585 -349 -592 0 -4 -4
-8 -9 -8 -5 0 -11 -8 -15 -17 -3 -10 -15 -33 -26 -50 -11 -18 -28 -46 -37 -62
-10 -16 -35 -57 -55 -91 -21 -34 -38 -66 -38 -71 0 -5 -4 -9 -10 -9 -5 0 -10
-4 -10 -9 0 -6 -687 -1157 -763 -1279 -7 -9 148 -12 762 -12 l770 0 49 83 c49
82 156 264 289 492 39 66 114 194 167 283 53 90 96 166 96 169 0 2 14 24 30
48 17 24 34 52 38 62 4 10 52 95 108 188 93 158 270 459 401 685 31 52 66 111
78 130 19 30 472 805 533 910 38 66 212 365 222 380 13 21 105 178 234 400 60
102 114 195 122 208 l14 22 -3290 0 -3290 0 97 -157z"/>
<path d="M2566 4790 c-14 -22 -26 -41 -26 -44 0 -2 -63 -113 -140 -246 -77
-133 -140 -246 -140 -250 0 -5 -3 -10 -7 -12 -5 -1 -17 -19 -27 -38 -10 -19
-68 -120 -128 -225 -61 -104 -120 -208 -133 -230 -12 -22 -46 -80 -75 -130
-29 -49 -62 -106 -72 -125 -49 -85 -403 -698 -419 -725 -11 -16 -22 -37 -26
-45 -4 -8 -35 -64 -70 -123 -35 -60 -63 -110 -63 -112 0 -2 -13 -24 -30 -48
-16 -25 -30 -48 -30 -52 0 -3 -20 -39 -43 -78 -24 -40 -55 -92 -69 -117 -22
-40 -152 -266 -516 -895 -63 -110 -124 -216 -135 -235 -30 -54 -167 -291 -189
-327 l-20 -33 3291 0 3290 0 -28 47 c-15 27 -122 201 -236 388 -115 187 -269
439 -343 560 -74 121 -140 230 -148 242 l-14 23 -1784 2 -1783 3 290 495 c328
560 492 841 517 885 9 17 43 72 74 124 31 51 56 95 56 96 0 2 236 407 259 445
5 8 54 92 109 185 54 94 145 249 202 345 56 96 111 190 122 208 10 18 26 44
34 58 l16 24 -770 0 -769 0 -27 -40z"/>
</g>
</svg>
