<?xml version="1.0" standalone="no"?>
<!DOCTYPE svg PUBLIC "-//W3C//DTD SVG 20010904//EN"
 "http://www.w3.org/TR/2001/REC-SVG-20010904/DTD/svg10.dtd">
<svg version="1.0" xmlns="http://www.w3.org/2000/svg"
 width="300.000000pt" height="300.000000pt" viewBox="0 0 300.000000 300.000000"
 preserveAspectRatio="xMidYMid meet">
<metadata>
Created by potrace 1.10, written by Peter Selinger 2001-2011
</metadata>
<g transform="translate(0.000000,300.000000) scale(0.100000,-0.100000)"
fill="#00b3b3" stroke="none">
<path d="M1665 2673 c-325 -20 -627 -88 -826 -188 -199 -100 -386 -262 -483
-417 -119 -193 -181 -456 -161 -686 l7 -79 56 61 c152 161 280 271 446 381
306 203 655 338 1049 405 109 19 387 43 396 34 2 -2 -9 -8 -24 -14 -199 -76
-530 -230 -715 -335 -687 -386 -1190 -871 -1391 -1344 -22 -52 -22 -54 -4 -87
12 -22 36 -42 68 -59 97 -48 127 -34 190 89 75 147 174 298 305 464 l18 24 92
-31 c214 -71 391 -103 582 -104 375 -2 625 139 828 466 23 37 83 149 133 250
191 387 227 450 333 592 103 138 219 241 377 339 l63 39 -27 23 c-54 47 -318
114 -582 148 -238 31 -520 42 -730 29z"/>
</g>
</svg>
